<svg height="574" width="720" xmlns="http://www.w3.org/2000/svg">
<rect height="574" fill="#555" width="720"></rect>
<text fill="#7f7" font-family="Courier New" font-size="12" xml:space="preserve">
<tspan x="10" y="26">2017-04-22 14:37:23 +0800</tspan>
<tspan x="10" y="42">[npm publishAfterCommitAfterBuild]</tspan>
<tspan x="10" y="58">2017-04-20 20:06:39 +0000</tspan>
<tspan x="10" y="74">[ci skip] npm published</tspan>
<tspan x="10" y="90"></tspan>
<tspan x="10" y="106">2017-04-20 20:03:50 +0000</tspan>
<tspan x="10" y="122">[npm publishAfterCommit]</tspan>
<tspan x="10" y="138"></tspan>
<tspan x="10" y="154">2017-04-21 02:31:29 +0800</tspan>
<tspan x="10" y="170">[npm publishAfterCommitAfterBuild]</tspan>
<tspan x="10" y="186">2017-04-08 10:21:21 +0000</tspan>
<tspan x="10" y="202">[ci skip] npm published</tspan>
<tspan x="10" y="218"></tspan>
<tspan x="10" y="234">2017-04-08 10:17:28 +0000</tspan>
<tspan x="10" y="250">[npm publishAfterCommit]</tspan>
<tspan x="10" y="266"></tspan>
<tspan x="10" y="282">2017-04-08 13:41:30 +0800</tspan>
<tspan x="10" y="298">[npm publishAfterCommitAfterBuild]</tspan>
<tspan x="10" y="314">2017-04-07 20:24:20 +0000</tspan>
<tspan x="10" y="330">[ci skip] npm published</tspan>
<tspan x="10" y="346"></tspan>
<tspan x="10" y="362">2017-04-07 20:18:25 +0000</tspan>
<tspan x="10" y="378">[npm publishAfterCommit]</tspan>
<tspan x="10" y="394"></tspan>
<tspan x="10" y="410">2017-04-07 18:13:05 +0800</tspan>
<tspan x="10" y="426">[npm publishAfterCommitAfterBuild]</tspan>
<tspan x="10" y="442">2017-04-01 17:17:27 +0000</tspan>
<tspan x="10" y="458">[npm publishAfterCommit]</tspan>
<tspan x="10" y="474"></tspan>
<tspan x="10" y="490">2017-04-01 17:10:53 +0000</tspan>
<tspan x="10" y="506">[npm publishAfterCommitAfterBuild]</tspan>
<tspan x="10" y="522"></tspan>
<tspan x="10" y="538">2014-03-26 02:31:50 +0700</tspan>
<tspan x="10" y="554">add blank README.md</tspan>
</text>
</svg>
