<svg height="2414" width="720" xmlns="http://www.w3.org/2000/svg">
<rect height="2414" fill="#555" width="720"></rect>
<text fill="#7f7" font-family="Courier New" font-size="12" xml:space="preserve">
<tspan x="10" y="26"></tspan>
<tspan x="10" y="42">&gt; npmdoc-ionic@0.0.2 test /home/travis/build/npmdoc/node-npmdoc-ionic</tspan>
<tspan x="10" y="58">&gt; (set -e; export PORT=$(utility2 shServerPortRandom); utility2 test test.js)</tspan>
<tspan x="10" y="74"></tspan>
<tspan x="10" y="90"></tspan>
<tspan x="10" y="106">[MODE_BUILD=npmTest] - 2017-04-07T20:21:38Z - npm-testing /home/travis/build/npmdoc/node-npmdoc-\</tspan>
<tspan x="10" y="122">ionic</tspan>
<tspan x="10" y="138"></tspan>
<tspan x="10" y="154"></tspan>
<tspan x="10" y="170">covering $ /home/travis/.nvm/versions/node/v6.10.2/bin/node /home/travis/build/npmdoc/node-npmdo\</tspan>
<tspan x="10" y="186">c-ionic/test.js</tspan>
<tspan x="10" y="202">merging file:///home/travis/build/npmdoc/node-npmdoc-ionic/tmp/build/test-report.json to test-re\</tspan>
<tspan x="10" y="218">port</tspan>
<tspan x="10" y="234">&gt; server listening on http-port 56595</tspan>
<tspan x="10" y="250">Building Nightly ... BEGIN</tspan>
<tspan x="10" y="266">Backing up the original package.json</tspan>
<tspan x="10" y="282">Creating the nightly version of package.json</tspan>
<tspan x="10" y="298">Publishing to npm</tspan>
<tspan x="10" y="314">npm ERR! Linux 4.4.0-51-generic</tspan>
<tspan x="10" y="330">npm ERR! argv "/home/travis/.nvm/versions/node/v6.10.2/bin/node" "/home/travis/build/npmdoc/node\</tspan>
<tspan x="10" y="346">-npmdoc-ionic/node_modules/.bin/npm" "publish" "--tag=nightly" "/home/travis/build/npmdoc/node-n\</tspan>
<tspan x="10" y="362">pmdoc-ionic"</tspan>
<tspan x="10" y="378">npm ERR! node v6.10.2</tspan>
<tspan x="10" y="394">npm ERR! npm  v2.15.12</tspan>
<tspan x="10" y="410">npm ERR! code ENEEDAUTH</tspan>
<tspan x="10" y="426"></tspan>
<tspan x="10" y="442">npm ERR! need auth auth required for publishing</tspan>
<tspan x="10" y="458">npm ERR! need auth You need to authorize this machine using `npm adduser`</tspan>
<tspan x="10" y="474"></tspan>
<tspan x="10" y="490">npm ERR! Please include the following file with any support request:</tspan>
<tspan x="10" y="506">npm ERR!     /home/travis/build/npmdoc/node-npmdoc-ionic/npm-debug.log</tspan>
<tspan x="10" y="522">Something went wrong with publishing the nightly. This process modifies the package.json, so res\</tspan>
<tspan x="10" y="538">tore it before committing code! - Command failed: npm publish --tag=nightly /home/travis/build/n\</tspan>
<tspan x="10" y="554">pmdoc/node-npmdoc-ionic</tspan>
<tspan x="10" y="570">npm ERR! Linux 4.4.0-51-generic</tspan>
<tspan x="10" y="586">npm ERR! argv "/home/travis/.nvm/versions/node/v6.10.2/bin/node" "/home/travis/build/npmdoc/node\</tspan>
<tspan x="10" y="602">-npmdoc-ionic/node_modules/.bin/npm" "publish" "--tag=nightly" "/home/travis/build/npmdoc/node-n\</tspan>
<tspan x="10" y="618">pmdoc-ionic"</tspan>
<tspan x="10" y="634">npm ERR! node v6.10.2</tspan>
<tspan x="10" y="650">npm ERR! npm  v2.15.12</tspan>
<tspan x="10" y="666">npm ERR! code ENEEDAUTH</tspan>
<tspan x="10" y="682"></tspan>
<tspan x="10" y="698">npm ERR! need auth auth required for publishing</tspan>
<tspan x="10" y="714">npm ERR! need auth You need to authorize this machine using `npm adduser`</tspan>
<tspan x="10" y="730"></tspan>
<tspan x="10" y="746">npm ERR! Please include the following file with any support request:</tspan>
<tspan x="10" y="762">npm ERR!     /home/travis/build/npmdoc/node-npmdoc-ionic/npm-debug.log</tspan>
<tspan x="10" y="778"></tspan>
<tspan x="10" y="794">created apidoc file:///home/travis/build/npmdoc/node-npmdoc-ionic/tmp/build/apidoc.html</tspan>
<tspan x="10" y="810"></tspan>
<tspan x="10" y="826"></tspan>
<tspan x="10" y="842">browserTest - created electron entry-page /home/travis/build/npmdoc/node-npmdoc-ionic/tmp/electr\</tspan>
<tspan x="10" y="858">on.15b4a145c650.f69f597a3cc63.html</tspan>
<tspan x="10" y="874"></tspan>
<tspan x="10" y="890">[node test-case 1 of 6 passed] - testCase_buildLib_default</tspan>
<tspan x="10" y="906">[node test-case 2 of 6 passed] - testCase_buildReadme_default</tspan>
<tspan x="10" y="922">[node test-case 3 of 6 passed] - testCase_buildTest_default</tspan>
<tspan x="10" y="938"></tspan>
<tspan x="10" y="954">browserTest - created electron entry-page /home/travis/build/npmdoc/node-npmdoc-ionic/tmp/electr\</tspan>
<tspan x="10" y="970">on.15b4a145cbc0.7da2fc583b28d.html</tspan>
<tspan x="10" y="986"></tspan>
<tspan x="10" y="1002">Xlib:  extension "RANDR" missing on display ":99.0".</tspan>
<tspan x="10" y="1018">Xlib:  extension "RANDR" missing on display ":99.0".</tspan>
<tspan x="10" y="1034">merging file:///home/travis/build/npmdoc/node-npmdoc-ionic/tmp/build/test-report.json to test-re\</tspan>
<tspan x="10" y="1050">port</tspan>
<tspan x="10" y="1066">&gt; server listening on http-port 32904</tspan>
<tspan x="10" y="1082">Xlib:  extension "RANDR" missing on display ":99.0".</tspan>
<tspan x="10" y="1098">[6440:0407/202141:WARNING:audio_manager.cc(314)] Multiple instances of AudioManager detected</tspan>
<tspan x="10" y="1114">[6440:0407/202141:WARNING:audio_manager.cc(275)] Multiple instances of AudioManager detected</tspan>
<tspan x="10" y="1130">merging file:///home/travis/build/npmdoc/node-npmdoc-ionic/tmp/build/test-report.json to test-re\</tspan>
<tspan x="10" y="1146">port</tspan>
<tspan x="10" y="1162">Xlib:  extension "RANDR" missing on display ":99.0".</tspan>
<tspan x="10" y="1178">[6439:0407/202141:WARNING:audio_manager.cc(314)] Multiple instances of AudioManager detected</tspan>
<tspan x="10" y="1194">[6439:0407/202141:WARNING:audio_manager.cc(275)] Multiple instances of AudioManager detected</tspan>
<tspan x="10" y="1210">[6473:0407/202141:ERROR:sandbox_linux.cc(343)] InitializeSandbox() called with multiple threads \</tspan>
<tspan x="10" y="1226">in process gpu-process. </tspan>
<tspan x="10" y="1242">[6491:0407/202141:ERROR:sandbox_linux.cc(343)] InitializeSandbox() called with multiple threads \</tspan>
<tspan x="10" y="1258">in process gpu-process. </tspan>
<tspan x="10" y="1274">[6440:0407/202141:ERROR:browser_gpu_channel_host_factory.cc(131)] Failed to create channel.</tspan>
<tspan x="10" y="1290"></tspan>
<tspan x="10" y="1306">browserTest - opened url /home/travis/build/npmdoc/node-npmdoc-ionic/tmp/build/apidoc.html</tspan>
<tspan x="10" y="1322"></tspan>
<tspan x="10" y="1338"></tspan>
<tspan x="10" y="1354">browserTest - opened url http://127.0.0.1:56595?modeTest=1</tspan>
<tspan x="10" y="1370"></tspan>
<tspan x="10" y="1386">[6440:0407/202143:INFO:CONSOLE(249)] "----------|-----------|-----------|-----------|-----------\</tspan>
<tspan x="10" y="1402">|</tspan>
<tspan x="10" y="1418">File      |   % Stmts |% Branches |   % Funcs |   % Lines |</tspan>
<tspan x="10" y="1434">----------|-----------|-----------|-----------|-----------|</tspan>
<tspan x="10" y="1450">----------|-----------|-----------|-----------|-----------|</tspan>
<tspan x="10" y="1466">All files |       100 |       100 |       100 |       100 |</tspan>
<tspan x="10" y="1482">----------|-----------|-----------|-----------|-----------|</tspan>
<tspan x="10" y="1498">", source: file:///home/travis/build/npmdoc/node-npmdoc-ionic/tmp/electron.15b4a145cbc0.7da2fc58\</tspan>
<tspan x="10" y="1514">3b28d.html (249)</tspan>
<tspan x="10" y="1530">[6440:0407/202143:INFO:CONSOLE(249)] "created coverage file:///tmp/build/coverage.html/index.htm\</tspan>
<tspan x="10" y="1546">l", source: file:///home/travis/build/npmdoc/node-npmdoc-ionic/tmp/electron.15b4a145cbc0.7da2fc5\</tspan>
<tspan x="10" y="1562">83b28d.html (249)</tspan>
<tspan x="10" y="1578">[node test-case 4 of 6 passed] - testCase_buildApp_default</tspan>
<tspan x="10" y="1594"></tspan>
<tspan x="10" y="1610">browserTest - exit-code 1 - /home/travis/build/npmdoc/node-npmdoc-ionic/tmp/build/apidoc.html</tspan>
<tspan x="10" y="1626"></tspan>
<tspan x="10" y="1642">[node test-case 5 of 6 passed] - testCase_buildApidoc_default</tspan>
<tspan x="10" y="1658"></tspan>
<tspan x="10" y="1674">browserTest - created screenCapture file:///home/travis/build/npmdoc/node-npmdoc-ionic/tmp/build\</tspan>
<tspan x="10" y="1690">/screenCapture.%2F.png</tspan>
<tspan x="10" y="1706"></tspan>
<tspan x="10" y="1722">browserTest - created screenCapture file:///home/travis/build/npmdoc/node-npmdoc-ionic/tmp/build\</tspan>
<tspan x="10" y="1738">/screenCapture.%2F.html</tspan>
<tspan x="10" y="1754"></tspan>
<tspan x="10" y="1770">browserTest - exit-code 0 - http://127.0.0.1:56595?modeTest=1</tspan>
<tspan x="10" y="1786"></tspan>
<tspan x="10" y="1802"></tspan>
<tspan x="10" y="1818">browserTest - merged coverage from /home/travis/build/npmdoc/node-npmdoc-ionic/tmp/coverage.%2F.\</tspan>
<tspan x="10" y="1834">json</tspan>
<tspan x="10" y="1850"></tspan>
<tspan x="10" y="1866"></tspan>
<tspan x="10" y="1882">browserTest - merging test-report from /home/travis/build/npmdoc/node-npmdoc-ionic/tmp/test-repo\</tspan>
<tspan x="10" y="1898">rt.%2F.json</tspan>
<tspan x="10" y="1914"></tspan>
<tspan x="10" y="1930">[node test-case 6 of 6 passed] - testCase_webpage_default</tspan>
<tspan x="10" y="1946">--------------------------|-----------|-----------|-----------|-----------|</tspan>
<tspan x="10" y="1962">File                      |   % Stmts |% Branches |   % Funcs |   % Lines |</tspan>
<tspan x="10" y="1978">--------------------------|-----------|-----------|-----------|-----------|</tspan>
<tspan x="10" y="1994">   node-npmdoc-ionic/     |       100 |       100 |       100 |       100 |</tspan>
<tspan x="10" y="2010">      example.js          |       100 |       100 |       100 |       100 |</tspan>
<tspan x="10" y="2026">      lib.npmdoc_ionic.js |       100 |       100 |       100 |       100 |</tspan>
<tspan x="10" y="2042">      test.js             |       100 |       100 |       100 |       100 |</tspan>
<tspan x="10" y="2058">--------------------------|-----------|-----------|-----------|-----------|</tspan>
<tspan x="10" y="2074">All files                 |       100 |       100 |       100 |       100 |</tspan>
<tspan x="10" y="2090">--------------------------|-----------|-----------|-----------|-----------|</tspan>
<tspan x="10" y="2106"></tspan>
<tspan x="10" y="2122">created coverage file:///home/travis/build/npmdoc/node-npmdoc-ionic/tmp/build/coverage.html/inde\</tspan>
<tspan x="10" y="2138">x.html</tspan>
<tspan x="10" y="2154">merging file:///home/travis/build/npmdoc/node-npmdoc-ionic/tmp/build/test-report.json to test-re\</tspan>
<tspan x="10" y="2170">port</tspan>
<tspan x="10" y="2186"></tspan>
<tspan x="10" y="2202">-------------------------------------------------------</tspan>
<tspan x="10" y="2218">| test-report - buildNpmdoc - node - linux v6.10.2 - 2017-04-07T20:20:56.298Z</tspan>
<tspan x="10" y="2234">|   58491 ms            0 failed        6 passed      |</tspan>
<tspan x="10" y="2250">-------------------------------------------------------</tspan>
<tspan x="10" y="2266"></tspan>
<tspan x="10" y="2282">created test-report file:///home/travis/build/npmdoc/node-npmdoc-ionic/tmp/build/test-report.htm\</tspan>
<tspan x="10" y="2298">l</tspan>
<tspan x="10" y="2314"></tspan>
<tspan x="10" y="2330"></tspan>
<tspan x="10" y="2346">npmTest - 0 failed tests</tspan>
<tspan x="10" y="2362"></tspan>
<tspan x="10" y="2378"></tspan>
<tspan x="10" y="2394">[MODE_BUILD=npmTest] - 2017-04-07T20:21:58Z - EXIT_CODE - 0</tspan>
</text>
</svg>
